<svg width="40" height="40" viewBox="0 0 40 40" fill="none" xmlns="http://www.w3.org/2000/svg">
<g clip-path="url(#clip0_30_116)">
<path d="M39.1673 9.16692C38.7059 9.16692 38.3323 9.53981 38.3323 10V16.6669H36.6673V15C36.6673 13.1622 35.1708 11.6669 33.3323 11.6669C32.3387 11.6669 31.4452 12.1051 30.8324 12.799C30.2221 12.1051 29.3285 11.6669 28.3324 11.6669C27.3388 11.6669 26.4453 12.1051 25.8324 12.799C25.2221 12.1051 24.3285 11.6669 23.3324 11.6669C22.3388 11.6669 21.4452 12.1051 20.833 12.799C20.2221 12.1051 19.3285 11.6669 18.333 11.6669C17.3388 11.6669 16.4447 12.1051 15.833 12.799C15.2221 12.1051 14.3285 11.6669 13.333 11.6669C12.3388 11.6669 11.4447 12.1051 10.833 12.799C10.2221 12.1051 9.32847 11.6669 8.333 11.6669C6.78339 11.6669 5.47596 12.7307 5.10486 14.1669H2.50001C2.03977 14.1669 1.66688 14.5397 1.66688 15V16.6669H0.833128C0.372892 16.6669 0 17.0398 0 17.5C0 17.9602 0.372892 18.3331 0.833128 18.3331H1.66688V20C1.66688 20.4602 2.03977 20.8331 2.50001 20.8331H5.00002V36.6674C5.00002 38.5046 6.49542 39.9999 8.33316 39.9999C9.32863 39.9999 10.2222 39.5605 10.8332 38.8671C11.4447 39.5605 12.3389 39.9999 13.3332 39.9999C14.3286 39.9999 15.2222 39.5605 15.8332 38.8671C16.4448 39.5605 17.3389 39.9999 18.3332 39.9999C19.3287 39.9999 20.2223 39.5605 20.8332 38.8671C21.4454 39.5605 22.3389 39.9999 23.3326 39.9999C24.3287 39.9999 25.2223 39.5605 25.8326 38.8671C26.4454 39.5605 27.3389 39.9999 28.3325 39.9999C29.3286 39.9999 30.2222 39.5605 30.8325 38.8671C31.4454 39.5605 32.3389 39.9999 33.3325 39.9999C35.1708 39.9999 36.6675 38.5045 36.6675 36.6674V18.3331H39.1675C39.6265 18.3331 40 17.9602 40 17.5V10C39.9998 9.53981 39.6263 9.16692 39.1673 9.16692ZM5.00002 19.1669H3.33314V15.8331H5.00002V19.1669ZM9.99996 36.6674C9.99996 37.5854 9.25285 38.3324 8.33308 38.3324C7.41456 38.3324 6.66682 37.5854 6.66682 36.6674V20V15C6.66682 14.0814 7.41448 13.3331 8.33308 13.3331C9.25285 13.3331 9.99996 14.0814 9.99996 15V36.6674ZM15 36.6674C14.9999 37.5854 14.2529 38.3324 13.3331 38.3324C12.4146 38.3324 11.6668 37.5854 11.6668 36.6674V15C11.6668 14.0814 12.4145 13.3331 13.3331 13.3331C14.2529 13.3331 15 14.0814 15 15V36.6674ZM19.9999 36.6674C19.9999 37.5854 19.2529 38.3324 18.333 38.3324C17.4145 38.3324 16.6668 37.5854 16.6668 36.6674V15C16.6668 14.0814 17.4144 13.3331 18.333 13.3331C19.2528 13.3331 19.9999 14.0814 19.9999 15V36.6674ZM24.9999 36.6674C24.9999 37.5854 24.2529 38.3324 23.3324 38.3324C22.4145 38.3324 21.6674 37.5854 21.6674 36.6674V15C21.6674 14.0814 22.4145 13.3331 23.3324 13.3331C24.2528 13.3331 24.9999 14.0814 24.9999 15V36.6674ZM29.9999 36.6674C29.9999 37.5854 29.2528 38.3324 28.3324 38.3324C27.4145 38.3324 26.6674 37.5854 26.6674 36.6674V15C26.6674 14.0814 27.4144 13.3331 28.3324 13.3331C29.2528 13.3331 29.9999 14.0814 29.9999 15V36.6674ZM34.9998 36.6674C34.9998 37.5854 34.2528 38.3324 33.3323 38.3324C32.4144 38.3324 31.6673 37.5854 31.6673 36.6674V15C31.6673 14.0814 32.4143 13.3331 33.3323 13.3331C34.2527 13.3331 34.9998 14.0814 34.9998 15V36.6674Z" fill="white"/>
<path d="M27.8807 8.09941C27.7782 7.7448 27.8416 7.4866 28.0907 7.23574C28.7669 6.55644 28.9915 5.67448 28.7205 4.75041C28.5399 4.13026 28.1883 3.69205 28.1443 3.63713C28.1419 3.63713 28.1419 3.6365 28.1419 3.6365V3.63533C27.9881 3.45103 27.7586 3.33322 27.4998 3.33322C27.0396 3.33322 26.6674 3.70674 26.6674 4.16697C26.6674 4.36901 26.7382 4.55455 26.8578 4.69862C26.8603 4.70041 27.036 4.92815 27.1215 5.21862C27.2204 5.55979 27.1582 5.81128 26.9091 6.05972C26.2353 6.73769 26.0095 7.62574 26.278 8.55957C26.4599 9.19254 26.8114 9.64051 26.8505 9.68997V9.68934C27.0043 9.87856 27.2375 10 27.4999 10C27.9601 10 28.3324 9.62715 28.3324 9.16692C28.3324 8.96856 28.264 8.78668 28.1493 8.64387C28.1468 8.64145 27.9661 8.40277 27.8807 8.09941Z" fill="white"/>
<path d="M20.9888 7.54768C20.7966 6.77924 20.9504 6.12619 21.4576 5.55182C22.3487 4.5447 22.6319 3.31001 22.2779 1.97946C22.0288 1.0468 21.5504 0.399219 21.4966 0.328437V0.329687C21.3428 0.130077 21.1042 7.62939e-05 20.8332 7.62939e-05C20.3728 7.62939e-05 19.9999 0.372968 19.9999 0.833205C19.9999 1.0218 20.0628 1.19516 20.1684 1.3343H20.1671C20.1708 1.33914 20.518 1.81157 20.6786 2.45305C20.8702 3.22079 20.7164 3.87392 20.2086 4.44822C19.3188 5.45533 19.0355 6.6901 19.3896 8.02066C19.6374 8.95332 20.1166 9.6009 20.1696 9.67168L20.1709 9.67043C20.3228 9.87121 20.5627 10 20.8331 10C21.2939 10 21.6675 9.62715 21.6675 9.16691C21.6675 8.97832 21.6041 8.80496 21.4991 8.66581C21.4954 8.66097 21.1481 8.18855 20.9888 7.54768Z" fill="#FF0900"/>
<path d="M14.8157 8.64387C14.8139 8.64145 14.6338 8.40277 14.5465 8.09941C14.4446 7.7448 14.5075 7.4866 14.7571 7.23574C15.434 6.55644 15.6573 5.67448 15.3869 4.75041C15.2057 4.13026 14.8565 3.6933 14.8095 3.63713C14.8095 3.63713 14.8095 3.6365 14.8089 3.6365L14.8083 3.63471V3.63533C14.6551 3.45103 14.425 3.33322 14.1668 3.33322C13.7065 3.33322 13.333 3.70674 13.333 4.16697C13.333 4.36901 13.405 4.55455 13.5247 4.69862C13.5265 4.70041 13.7022 4.92815 13.7871 5.21862C13.8872 5.55979 13.8237 5.81128 13.5759 6.05972C12.9009 6.73769 12.6763 7.62574 12.9449 8.55957C13.1268 9.19254 13.4783 9.64051 13.518 9.68997V9.68934C13.6712 9.87856 13.9043 10 14.1668 10C14.6271 10 15 9.62715 15 9.16692C15 8.96856 14.9304 8.78668 14.8151 8.64387H14.8157Z" fill="white"/>
</g>
<defs>
<clipPath id="clip0_30_116">
<rect width="40" height="40" fill="white"/>
</clipPath>
</defs>
</svg>
