<svg width="40" height="40" viewBox="0 0 40 40" fill="none" xmlns="http://www.w3.org/2000/svg">
<path d="M39.3334 28H31.3334V24H39.3334C39.7334 24 40 23.7334 40 23.3334C40 22.9334 39.7334 22.6667 39.3334 22.6667H31.3334V20.6667C31.3334 20.2667 31.0667 20.0001 30.6667 20.0001H24.6V16.7001C27.7723 15.4147 30 12.3098 30 8.66664C30 3.86664 26.1334 0 21.3334 0C16.5334 0 12.6666 3.86664 12.6666 8.66664C12.6666 12.2842 14.8631 15.3713 18 16.6728V20H12C11.6 20 11.3334 20.2666 11.3334 20.6666V22.6854C5.04031 23.0302 0 28.2214 0 34.5334V39.3334C0 39.7334 0.266641 40 0.666641 40C1.06664 40 1.33328 39.7334 1.33328 39.3334V34.5334C1.33328 28.9334 5.79992 24.3334 11.3333 24V27.8666C7.99992 28.2666 5.33328 31.0666 5.33328 34.5333V39.3333C5.33328 39.7333 5.59992 39.9999 5.99992 39.9999C6.39992 39.9999 6.66656 39.7333 6.66656 39.3333V34.5333C6.66656 31.8258 8.71172 29.5743 11.3332 29.2434V31.3333C11.3332 31.7333 11.5998 31.9999 11.9998 31.9999H30.6665C31.0665 31.9999 31.3331 31.7333 31.3331 31.3333V29.3333H39.3331C39.7331 29.3333 39.9998 29.0666 39.9998 28.6666C39.9998 28.2666 39.7334 28 39.3334 28ZM14.0307 9.33336H14.6666C15.0666 9.33336 15.3333 9.06672 15.3333 8.66672C15.3333 8.26672 15.0666 8.00008 14.6666 8.00008H14.0307C14.351 4.47188 17.1863 1.68336 20.6666 1.36438V2C20.6666 2.4 20.9333 2.66664 21.3333 2.66664C21.7333 2.66664 21.9999 2.4 21.9999 2V1.36344C25.5315 1.67805 28.3219 4.46844 28.6365 8H28C27.6 8 27.3334 8.26664 27.3334 8.66664C27.3334 9.06664 27.6 9.33328 28 9.33328H28.6359C28.3552 12.4259 26.1422 14.9501 23.256 15.7412C23.2173 15.7514 23.1788 15.7627 23.1401 15.7723C23.1325 15.7743 23.1248 15.776 23.1172 15.778C22.7469 15.8691 22.3739 15.931 21.9999 15.966V15.3334C21.9999 14.9334 21.7333 14.6667 21.3333 14.6667C20.9333 14.6667 20.6666 14.9334 20.6666 15.3334V15.9691C17.1863 15.6501 14.351 12.8616 14.0307 9.33336ZM19.3334 17.1027C19.9751 17.2534 20.6445 17.3334 21.3334 17.3334C22.0222 17.3334 22.6916 17.2534 23.3334 17.1027V20H19.3334V17.1027ZM30 30.6666H12.6666V28.5333V23.3333V21.3333H18.6666H24H30V23.3333V28.6666V30.6666Z" fill="white"/>
<path d="M26.6667 23.3334H16C15.6 23.3334 15.3334 23.6 15.3334 24V28C15.3334 28.4 15.6 28.6666 16 28.6666H26.6667C27.0667 28.6666 27.3333 28.4 27.3333 28V24C27.3334 23.6 27.0667 23.3334 26.6667 23.3334ZM26 27.3334H16.6667V24.6667H26V27.3334Z" fill="white"/>
<path d="M22.9333 10.6C23.1333 10.5334 23.2667 10.4 23.3333 10.2L24.6667 6.20001C24.7333 6.00001 24.6667 5.73337 24.4667 5.53337C24.3333 5.40001 24.0667 5.33337 23.8 5.40001L19.8 6.73337C19.6 6.80001 19.4667 6.93337 19.4 7.13337L18.0667 11.1334C17.9333 11.3334 18 11.6 18.2 11.8C18.3334 11.9334 18.4667 12 18.6667 12C18.7333 12 18.8 12 18.9333 11.9334L22.9333 10.6ZM20.5333 7.86665L22.9333 7.06665L22.1333 9.46665L19.7333 10.2667L20.5333 7.86665Z" fill="#FF0900"/>
</svg>
