<svg width="40" height="40" viewBox="0 0 40 40" fill="none" xmlns="http://www.w3.org/2000/svg">
<path d="M10.9375 12.4788H9.53969C8.67219 12.4798 7.81463 12.6635 7.02279 13.0178C6.23096 13.3721 5.52258 13.8892 4.94375 14.5353C4.89478 14.5886 4.85687 14.6511 4.83222 14.7192C4.80758 14.7872 4.7967 14.8595 4.8002 14.9318C4.8037 15.0041 4.82152 15.075 4.85263 15.1404C4.88373 15.2057 4.92751 15.2643 4.98141 15.3126C5.03531 15.3609 5.09826 15.398 5.16662 15.4218C5.23498 15.4456 5.30739 15.4556 5.37964 15.4512C5.45189 15.4468 5.52255 15.4281 5.58752 15.3962C5.65249 15.3643 5.71048 15.3198 5.75813 15.2653C6.23434 14.7336 6.81712 14.3081 7.46859 14.0165C8.12005 13.7248 8.82561 13.5736 9.53938 13.5725H10.9375C11.0825 13.5725 11.2216 13.5149 11.3242 13.4123C11.4268 13.3098 11.4844 13.1707 11.4844 13.0256C11.4844 12.8806 11.4268 12.7415 11.3242 12.6389C11.2216 12.5364 11.0825 12.4788 10.9375 12.4788Z" fill="white"/>
<path d="M37.9688 9.13031H32.44C32.3682 9.13027 32.297 9.14439 32.2307 9.17186C32.1643 9.19933 32.104 9.23961 32.0532 9.2904C32.0024 9.34119 31.9621 9.40149 31.9347 9.46786C31.9072 9.53423 31.8931 9.60536 31.8931 9.67719V10.6031H27.5719C27.5414 9.9826 27.2738 9.39748 26.8242 8.96868C26.3746 8.53988 25.7775 8.30016 25.1563 8.29906H22.4594V7.01937L25.6663 7.33844C25.9607 7.36782 26.2581 7.33518 26.5392 7.24262C26.8203 7.15006 27.0788 6.99964 27.2983 6.80104C27.5177 6.60244 27.693 6.36008 27.813 6.08957C27.933 5.81906 27.995 5.5264 27.995 5.23047C27.995 4.93453 27.933 4.64188 27.813 4.37137C27.693 4.10086 27.5177 3.8585 27.2983 3.6599C27.0788 3.4613 26.8203 3.31087 26.5392 3.21831C26.2581 3.12576 25.9607 3.09312 25.6663 3.1225L22.4594 3.44187V2.96875C22.4594 2.57507 22.303 2.19751 22.0246 1.91914C21.7462 1.64076 21.3687 1.48438 20.975 1.48438C20.5813 1.48438 20.2038 1.64076 19.9254 1.91914C19.647 2.19751 19.4906 2.57507 19.4906 2.96875V3.44187L16.2834 3.1225C15.9979 3.09422 15.7095 3.12426 15.4359 3.21079C15.1622 3.29733 14.9091 3.43857 14.6917 3.62592C14.4743 3.81328 14.2972 4.04285 14.1712 4.30071C14.0453 4.55857 13.973 4.83933 13.9588 5.12597C13.9446 5.4126 13.9888 5.69913 14.0888 5.96816C14.1887 6.23719 14.3422 6.48312 14.5401 6.69101C14.7379 6.89891 14.9759 7.06444 15.2397 7.17755C15.5034 7.29067 15.7874 7.34902 16.0744 7.34906C16.1442 7.34911 16.214 7.34556 16.2834 7.33844L19.4906 7.01937V8.29906H16.7966C16.1752 8.30008 15.5781 8.53976 15.1284 8.96857C14.6788 9.39738 14.4111 9.98254 14.3806 10.6031H9.54063C7.4072 10.6055 5.36184 11.4541 3.85328 12.9626C2.34472 14.4712 1.49615 16.5166 1.49375 18.65V24.35C1.49371 24.4218 1.50783 24.493 1.5353 24.5593C1.56277 24.6257 1.60305 24.686 1.65384 24.7368C1.70463 24.7876 1.76493 24.8279 1.8313 24.8553C1.89767 24.8828 1.9688 24.8969 2.04063 24.8969H9.54063C9.68567 24.8969 9.82477 24.8393 9.92733 24.7367C10.0299 24.6341 10.0875 24.495 10.0875 24.35V19.1969H14.8688C15.2324 19.8915 15.779 20.4734 16.4495 20.8797C17.12 21.286 17.8888 21.5013 18.6728 21.5022H23.2813C24.0652 21.5013 24.834 21.286 25.5044 20.8797C26.1749 20.4733 26.7214 19.8914 27.085 19.1969H31.8931V20.125C31.8931 20.1968 31.9072 20.268 31.9347 20.3343C31.9621 20.4007 32.0024 20.461 32.0532 20.5118C32.104 20.5626 32.1643 20.6029 32.2307 20.6303C32.297 20.6578 32.3682 20.6719 32.44 20.6719H37.9688C38.0406 20.6719 38.1117 20.6578 38.1781 20.6303C38.2445 20.6029 38.3048 20.5626 38.3555 20.5118C38.4063 20.461 38.4466 20.4007 38.4741 20.3343C38.5016 20.268 38.5157 20.1968 38.5156 20.125V9.67719C38.5157 9.60536 38.5016 9.53423 38.4741 9.46786C38.4466 9.40149 38.4063 9.34119 38.3555 9.2904C38.3048 9.23961 38.2445 9.19933 38.1781 9.17186C38.1117 9.14439 38.0406 9.13027 37.9688 9.13031ZM20.975 2.57812C21.0785 2.57837 21.1777 2.61961 21.2509 2.69281C21.3241 2.76601 21.3654 2.86523 21.3656 2.96875V3.50937C21.1054 3.51646 20.845 3.51646 20.5844 3.50937V2.96875C20.5845 2.8652 20.6258 2.76594 20.699 2.69272C20.7722 2.6195 20.8715 2.57829 20.975 2.57812ZM16.1753 6.25C16.0371 6.26413 15.8974 6.25 15.7648 6.20848C15.6322 6.16696 15.5094 6.09891 15.4039 6.00847C15.2985 5.91803 15.2125 5.80709 15.1512 5.68238C15.0899 5.55767 15.0546 5.4218 15.0475 5.28304C15.0403 5.14427 15.0615 5.00549 15.1096 4.87515C15.1577 4.74481 15.2319 4.62561 15.3275 4.52481C15.4232 4.42401 15.5383 4.34371 15.6659 4.28878C15.7936 4.23386 15.9311 4.20546 16.07 4.20531C16.105 4.20531 16.14 4.20719 16.1753 4.21062L19.4588 4.5375C19.6438 4.55563 19.8297 4.56719 20.0153 4.57875C20.0228 4.57875 20.03 4.58094 20.0375 4.58094H20.0409C20.6632 4.61891 21.2871 4.61891 21.9094 4.58094H21.9125C21.92 4.58094 21.9272 4.57906 21.9344 4.57875C22.1203 4.56719 22.3063 4.55563 22.4916 4.5375L25.7747 4.21062C25.9171 4.19651 26.0609 4.21237 26.1967 4.25719C26.3326 4.302 26.4576 4.37479 26.5637 4.47084C26.6697 4.5669 26.7545 4.68411 26.8125 4.81491C26.8705 4.94572 26.9005 5.08722 26.9005 5.23031C26.9005 5.3734 26.8705 5.51491 26.8125 5.64571C26.7545 5.77652 26.6697 5.89372 26.5637 5.98978C26.4576 6.08584 26.3326 6.15862 26.1967 6.20344C26.0609 6.24826 25.9171 6.26412 25.7747 6.25L22.4916 5.92344C21.4837 5.82292 20.4682 5.82292 19.4603 5.92344L16.1753 6.25ZM20.5844 6.95125C20.845 6.94396 21.1054 6.94396 21.3656 6.95125V8.29906H20.5844V6.95125ZM9.54063 18.1031C9.4688 18.1031 9.39767 18.1172 9.3313 18.1447C9.26493 18.1721 9.20463 18.2124 9.15384 18.2632C9.10305 18.314 9.06277 18.3743 9.0353 18.4407C9.00783 18.507 8.99371 18.5782 8.99375 18.65V23.8031H2.5875V18.65C2.58957 16.8066 3.32279 15.0392 4.62631 13.7357C5.92983 12.4322 7.69718 11.6989 9.54063 11.6969H14.375V17.2053C14.3754 17.5071 14.4075 17.8081 14.4709 18.1031H9.54063ZM23.2813 20.4084H18.6716C17.8224 20.4074 17.0083 20.0696 16.4078 19.4691C15.8074 18.8687 15.4697 18.0545 15.4688 17.2053V10.7209C15.4692 10.3688 15.6092 10.0312 15.8582 9.78227C16.1072 9.53329 16.4448 9.39323 16.7969 9.39281H20.0284H20.0375C20.0375 9.39281 20.0434 9.39281 20.0466 9.39281H21.9034H21.9125C21.9125 9.39281 21.9184 9.39281 21.9216 9.39281H25.1563C25.5084 9.39314 25.846 9.53318 26.095 9.78218C26.344 10.0312 26.4841 10.3688 26.4844 10.7209V17.2053C26.4835 18.0546 26.1457 18.8688 25.5452 19.4693C24.9447 20.0698 24.1305 20.4075 23.2813 20.4084ZM27.4819 18.1031C27.5453 17.8081 27.5775 17.5071 27.5778 17.2053V11.6969H31.8931V18.1031H27.4819ZM37.4219 19.5769H32.9869V18.6562V18.6503V18.6441V11.1562V11.1503V11.1441V10.2241H37.4219V19.5769Z" fill="white"/>
<path d="M5.34938 26.8472C4.95375 27.3703 1.48438 32.0209 1.48438 34.2144C1.48438 35.3551 1.93754 36.4492 2.74418 37.2558C3.55082 38.0624 4.64486 38.5156 5.78562 38.5156C6.92639 38.5156 8.02043 38.0624 8.82707 37.2558C9.63371 36.4492 10.0869 35.3551 10.0869 34.2144C10.0869 32.0209 6.61812 27.3706 6.22156 26.8472C6.16843 26.783 6.1018 26.7314 6.02642 26.6959C5.95104 26.6605 5.86877 26.6421 5.78547 26.6421C5.70217 26.6421 5.6199 26.6605 5.54452 26.6959C5.46914 26.7314 5.40251 26.783 5.34938 26.8472ZM5.78687 37.4219C4.93626 37.4213 4.12062 37.0832 3.51903 36.4818C2.91743 35.8805 2.57904 35.065 2.57812 34.2144C2.57812 32.8547 4.60469 29.7456 5.78562 28.1006C6.96625 29.7462 8.99312 32.8537 8.99312 34.2144C8.99213 35.0647 8.65388 35.88 8.05257 36.4813C7.45127 37.0826 6.636 37.4209 5.78562 37.4219H5.78687Z" fill="#FF0900"/>
</svg>
