<svg width="40" height="40" viewBox="0 0 40 40" fill="none" xmlns="http://www.w3.org/2000/svg">
<path d="M9.33336 6.66664C6.7607 6.66664 4.66672 8.76 4.66672 11.3333C4.66672 13.9066 6.7607 15.9999 9.33336 15.9999C11.906 15.9999 14 13.9066 14 11.3333C14 8.76 11.906 6.66664 9.33336 6.66664ZM9.33336 14.6666C7.49539 14.6666 6 13.1713 6 11.3333C6 9.49531 7.49531 7.99992 9.33336 7.99992C11.1713 7.99992 12.6667 9.49523 12.6667 11.3333C12.6666 13.1713 11.1713 14.6666 9.33336 14.6666Z" fill="#FF0900"/>
<path d="M4.664 18.6666C2.46134 18.6666 0.667985 20.4606 0.666656 22.6659C0.666656 24.8719 2.46064 26.6666 4.66666 26.6666H4.66736C6.87338 26.6653 8.66736 24.8706 8.66666 22.6666C8.66736 21.598 8.25135 20.594 7.49463 19.838C6.73931 19.0827 5.73533 18.6666 4.664 18.6666ZM4.66603 25.3334C3.19603 25.3334 2.00002 24.1367 2.00002 22.6667C2.00134 21.196 3.19603 20 4.66666 20C5.37869 20 6.04869 20.2773 6.55267 20.7807C7.05603 21.2847 7.3333 21.9547 7.3333 22.6667C7.334 24.136 6.13736 25.3326 4.66603 25.3334Z" fill="white"/>
<path d="M9.35335 33.3334H9.34671C8.97874 33.3334 8.68335 33.632 8.68335 34C8.68335 34.368 8.98538 34.6667 9.35335 34.6667C9.72132 34.6667 10.02 34.368 10.02 34C10.02 33.632 9.72132 33.3334 9.35335 33.3334Z" fill="white"/>
<path d="M32 32C30.8973 32 30 32.8973 30 34C30 35.1027 30.8973 36 32 36C33.1027 36 34 35.1027 34 34C34 32.8973 33.1027 32 32 32ZM32 34.6666C31.632 34.6666 31.3334 34.3673 31.3334 34C31.3334 33.6327 31.632 33.3334 32 33.3334C32.368 33.3334 32.6666 33.6327 32.6666 34C32.6666 34.3673 32.368 34.6666 32 34.6666Z" fill="white"/>
<path d="M36.6666 20C35.1959 20 34 21.196 34 22.6666C34 24.1373 35.196 25.3333 36.6666 25.3333C38.1373 25.3333 39.3333 24.1373 39.3333 22.6666C39.3333 21.196 38.1373 20 36.6666 20ZM36.6666 24C35.9313 24 35.3333 23.402 35.3333 22.6666C35.3333 21.9313 35.9312 21.3333 36.6666 21.3333C37.402 21.3333 38 21.9312 38 22.6666C38 23.402 37.402 24 36.6666 24Z" fill="white"/>
<path d="M20.6666 37.3333C19.9313 37.3333 19.3333 37.9313 19.3333 38.6667C19.3333 39.4007 19.9306 39.9987 20.6653 40.0001H20.6666C21.402 40.0001 22 39.4021 22 38.6654C21.9987 37.9307 21.4007 37.3333 20.6666 37.3333Z" fill="white"/>
<path d="M35.3333 11.3334C35.3333 9.49539 33.838 8 32 8C30.162 8 28.6666 9.49531 28.6666 11.3334C28.6666 13.1713 30.1619 14.6667 32 14.6667C33.838 14.6666 35.3333 13.1713 35.3333 11.3334ZM30 11.3334C30 10.2307 30.8973 9.33336 32 9.33336C33.1026 9.33336 34 10.2307 34 11.3334C34 12.436 33.1026 13.3334 32 13.3334C30.8973 13.3334 30 12.436 30 11.3334Z" fill="white"/>
<path d="M20.6667 0C17.726 0 15.3333 2.39266 15.3333 5.33336C15.3333 8.27406 17.726 10.6667 20.6667 10.6667C23.6074 10.6667 26 8.27406 26 5.33336C26 2.39266 23.6074 0 20.6667 0ZM20.6667 9.33336C18.4607 9.33336 16.6667 7.53937 16.6667 5.33336C16.6667 3.12734 18.4607 1.33336 20.6667 1.33336C22.8727 1.33336 24.6667 3.12734 24.6667 5.33336C24.6667 7.53937 22.8727 9.33336 20.6667 9.33336Z" fill="white"/>
</svg>
