<svg width="35" height="35" viewBox="0 0 35 35" fill="none" xmlns="http://www.w3.org/2000/svg">
<g clip-path="url(#clip0_46_299)">
<path d="M23.4411 27.3976C21.4163 27.3976 19.8847 26.5669 18.8464 24.9055C17.9638 23.5037 17.5224 21.7904 17.5224 19.7656C17.5224 17.1696 18.1714 14.8333 19.4694 12.7566C20.8193 10.6798 22.8441 9.01845 25.5438 7.77241L26.2447 9.1742C24.6353 9.84914 23.2335 10.9135 22.0393 12.3672C20.8971 13.8209 20.326 15.3006 20.326 16.8062C20.326 17.4292 20.4039 17.9744 20.5597 18.4416C21.3904 17.7667 22.3509 17.4292 23.4411 17.4292C24.8429 17.4292 26.0111 17.8965 26.9456 18.831C27.9321 19.7136 28.4253 20.9078 28.4253 22.4134C28.4253 23.8152 27.9321 25.0093 26.9456 25.9958C26.0111 26.9303 24.8429 27.3976 23.4411 27.3976ZM10.202 27.3976C8.17714 27.3976 6.64555 26.5669 5.60718 24.9055C4.72457 23.5037 4.28327 21.7904 4.28327 19.7656C4.28327 17.1696 4.93225 14.8333 6.2302 12.7566C7.58008 10.6798 9.6049 9.01845 12.3047 7.77241L13.0056 9.1742C11.3961 9.84914 9.99429 10.9135 8.80016 12.3672C7.65796 13.8209 7.08686 15.3006 7.08686 16.8062C7.08686 17.4292 7.16473 17.9744 7.32049 18.4416C8.15118 17.7667 9.11167 17.4292 10.202 17.4292C11.6038 17.4292 12.7719 17.8965 13.7064 18.831C14.6929 19.7136 15.1861 20.9078 15.1861 22.4134C15.1861 23.8152 14.6929 25.0093 13.7064 25.9958C12.7719 26.9303 11.6038 27.3976 10.202 27.3976Z" fill="#BBBBBB"/>
</g>
<defs>
<clipPath id="clip0_46_299">
<rect width="35" height="35" fill="white"/>
</clipPath>
</defs>
</svg>
