<svg width="25" height="21" viewBox="0 0 25 21" fill="none" xmlns="http://www.w3.org/2000/svg">
<path d="M6.20196 20.3976C5.05976 20.3976 4.12522 20.1639 3.39837 19.6967C2.67151 19.2294 2.07445 18.6323 1.60718 17.9055C1.088 17.0229 0.724571 16.1143 0.516898 15.1798C0.361143 14.1933 0.283265 13.3886 0.283265 12.7656C0.283265 10.2215 0.932245 7.91118 2.2302 5.83445C3.52816 3.75771 5.55298 2.07037 8.30465 0.772405L9.00555 2.1742C7.39608 2.84914 5.99429 3.91347 4.80016 5.36718C3.65796 6.8209 3.08686 8.30057 3.08686 9.80621C3.08686 10.4292 3.16473 10.9744 3.32049 11.4416C4.15118 10.7667 5.11167 10.4292 6.20196 10.4292C7.55184 10.4292 8.72 10.8705 9.70645 11.7531C10.6929 12.6358 11.1861 13.8558 11.1861 15.4134C11.1861 16.8671 10.6929 18.0612 9.70645 18.9958C8.72 19.9303 7.55184 20.3976 6.20196 20.3976ZM19.4411 20.3976C18.2989 20.3976 17.3644 20.1639 16.6376 19.6967C15.9107 19.2294 15.3136 18.6323 14.8464 17.9055C14.3272 17.0229 13.9638 16.1143 13.7561 15.1798C13.6003 14.1933 13.5224 13.3886 13.5224 12.7656C13.5224 10.2215 14.1714 7.91118 15.4694 5.83445C16.7673 3.75771 18.7922 2.07037 21.5438 0.772405L22.2447 2.1742C20.6353 2.84914 19.2335 3.91347 18.0393 5.36718C16.8971 6.8209 16.326 8.30057 16.326 9.80621C16.326 10.4292 16.4039 10.9744 16.5597 11.4416C17.3904 10.7667 18.3509 10.4292 19.4411 10.4292C20.791 10.4292 21.9592 10.8705 22.9456 11.7531C23.9321 12.6358 24.4253 13.8558 24.4253 15.4134C24.4253 16.8671 23.9321 18.0612 22.9456 18.9958C21.9592 19.9303 20.791 20.3976 19.4411 20.3976Z" fill="#BBBBBB"/>
</svg>
