<svg width="17" height="14" viewBox="0 0 17 14" fill="none" xmlns="http://www.w3.org/2000/svg">
<path d="M16.7391 1.62135C16.1166 1.89632 15.4534 2.07858 14.7618 2.16707C15.4732 1.73935 16.0162 1.06721 16.2715 0.257057C15.6082 0.655284 14.8759 0.936572 14.0954 1.09355C13.4656 0.418244 12.5679 0 11.5887 0C9.68882 0 8.15928 1.55288 8.15928 3.45657C8.15928 3.73049 8.1823 3.99386 8.23879 4.2446C5.38582 4.10448 2.86135 2.72754 1.16546 0.63C0.869389 1.14727 0.69572 1.73935 0.69572 2.37672C0.69572 3.57351 1.30774 4.6344 2.22003 5.2486C1.66868 5.23806 1.1278 5.07687 0.669565 4.82298C0.669565 4.83351 0.669565 4.84721 0.669565 4.8609C0.669565 6.5402 1.85909 7.93505 3.41897 8.25637C3.13963 8.33328 2.83519 8.37015 2.51924 8.37015C2.29954 8.37015 2.07774 8.35751 1.86955 8.31115C2.31418 9.67967 3.5759 10.6858 5.07614 10.7184C3.90859 11.6381 2.42613 12.1923 0.821264 12.1923C0.539837 12.1923 0.269918 12.1796 0 12.1449C1.52012 13.132 3.32167 13.6957 5.26446 13.6957C11.5793 13.6957 15.0317 8.42809 15.0317 3.86217C15.0317 3.70941 15.0265 3.56192 15.0192 3.41549C15.7003 2.92876 16.2725 2.32089 16.7391 1.62135Z" fill="white"/>
</svg>
