<svg width="21" height="14" viewBox="0 0 21 14" fill="none" xmlns="http://www.w3.org/2000/svg">
<path d="M8.4 10L13.8495 7L8.4 4V10ZM20.538 2.17C20.6745 2.64 20.769 3.27 20.832 4.07C20.9055 4.87 20.937 5.56 20.937 6.16L21 7C21 9.19 20.832 10.8 20.538 11.83C20.2755 12.73 19.6665 13.31 18.7215 13.56C18.228 13.69 17.325 13.78 15.939 13.84C14.574 13.91 13.3245 13.94 12.1695 13.94L10.5 14C6.1005 14 3.36 13.84 2.2785 13.56C1.3335 13.31 0.7245 12.73 0.462 11.83C0.3255 11.36 0.231 10.73 0.168 9.93C0.0945001 9.13 0.0629999 8.44 0.0629999 7.84L0 7C0 4.81 0.168 3.2 0.462 2.17C0.7245 1.27 1.3335 0.69 2.2785 0.44C2.772 0.31 3.675 0.22 5.061 0.16C6.426 0.0899998 7.6755 0.0599999 8.8305 0.0599999L10.5 0C14.8995 0 17.64 0.16 18.7215 0.44C19.6665 0.69 20.2755 1.27 20.538 2.17Z" fill="white"/>
</svg>
